<svg xmlns="http://www.w3.org/2000/svg" xmlns:xlink="http://www.w3.org/1999/xlink" viewBox="0 0 115.83 115.83"><defs><style>.cls-1{isolation:isolate;}.cls-2{fill:#0768fb;}.cls-3{fill:#ffce07;}.cls-4{fill:#fff;}.cls-5{mix-blend-mode:darken;fill:url(#radial-gradient);}</style><radialGradient id="radial-gradient" cx="57.91" cy="57.91" fx="83.86836824720042" fy="29.911998866087412" r="61.01" gradientUnits="userSpaceOnUse"><stop offset="0.04" stop-color="#231f20" stop-opacity="0"/><stop offset="0.68" stop-color="#231f20" stop-opacity="0"/><stop offset="0.78" stop-color="#231f20" stop-opacity="0"/><stop offset="0.98" stop-color="#070606" stop-opacity="0.8"/><stop offset="1"/></radialGradient></defs><title>Asset 28</title><g class="cls-1"><g id="Layer_2" data-name="Layer 2"><g id="Layer_1-2" data-name="Layer 1"><circle class="cls-2" cx="57.91" cy="57.91" r="57.91"/><path class="cls-3" d="M60,.05c.73.29,4.5,1.84,5.67,3,0,0-18.26,1-24.58,2.54,0,0,13,2.28,18.65,4.17,0,0-13.63,9.59-17.67,13.31L67.3,20.61,63.44,42.26,81.59,29.4l9.88,22.45,4.16-21.28,14.42,15.31L101.15,24l6,3.45A57.87,57.87,0,0,0,60,.05Z"/><path class="cls-4" d="M39.39,81.13S55.17,92.61,79.7,95.35c18.44,2.06,25.65-4.59,28.09-8a57.61,57.61,0,0,0,7.67-23c-3.4,7.13-9.22,8.61-9.22,8.61S95.09,77.09,76.7,73s-35.81-17.41-38-19.37S31.7,48.52,23.09,36c-8.44-12.27-2-22.6-1.71-23A58,58,0,0,0,4.05,36.64c.1.7,2.08,14.89,12,25.32C26.22,72.65,39.39,81.13,39.39,81.13Z"/><path class="cls-3" d="M107.79,87.34c-2.44,3.42-9.65,10.07-28.09,8C55.17,92.61,39.39,81.13,39.39,81.13S26.22,72.65,16,62C6.13,51.53,4.15,37.34,4.05,36.64A57.82,57.82,0,0,0,0,57.91C0,59,0,60.05.09,61.1c7,15.12,13.75,21.7,24.56,29.78a116.74,116.74,0,0,0,26.22,14.19A75.06,75.06,0,0,0,73,109.17c9.24.13,13.52-1.08,14.06-1.24A58.23,58.23,0,0,0,107.79,87.34Z"/><circle class="cls-5" cx="57.91" cy="57.91" r="57.91"/></g></g></g></svg>