<svg xmlns="http://www.w3.org/2000/svg" xmlns:xlink="http://www.w3.org/1999/xlink" viewBox="0 0 712.65 118.52"><defs><style>.cls-1{isolation:isolate;}.cls-2{fill:#0768fb;}.cls-3{fill:#ffce07;}.cls-4,.cls-6{fill:#fff;}.cls-5{mix-blend-mode:darken;fill:url(#radial-gradient);}.cls-6{font-size:113px;font-family:FrutigerBold, Frutiger;}</style><radialGradient id="radial-gradient" cx="57.91" cy="57.99" fx="92.42476740944036" fy="1.3231873195027717" r="66.35" gradientUnits="userSpaceOnUse"><stop offset="0.61" stop-color="#231f20" stop-opacity="0"/><stop offset="0.86" stop-color="#080707" stop-opacity="0.77"/><stop offset="0.89"/></radialGradient></defs><title>Logo</title><g class="cls-1"><g id="Layer_2" data-name="Layer 2"><g id="Layer_1-2" data-name="Layer 1"><circle class="cls-2" cx="57.91" cy="57.99" r="57.91"/><path class="cls-3" d="M60,.13c.73.3,4.5,1.84,5.67,3,0,0-18.26,1-24.58,2.54,0,0,13,2.28,18.65,4.17,0,0-13.63,9.59-17.67,13.31L67.3,20.69,63.44,42.34,81.59,29.48l9.88,22.45,4.16-21.28L110.05,46l-8.9-21.91,6,3.45A57.87,57.87,0,0,0,60,.13Z"/><path class="cls-4" d="M39.39,81.21S55.17,92.69,79.7,95.43c18.44,2.06,25.65-4.59,28.09-8a57.61,57.61,0,0,0,7.67-23c-3.4,7.13-9.22,8.61-9.22,8.61s-11.15,4.11-29.54,0-35.81-17.41-38-19.37-7-5.09-15.65-17.61c-8.44-12.27-2-22.6-1.71-23A58,58,0,0,0,4.05,36.72c.1.7,2.08,14.89,12,25.32C26.22,72.73,39.39,81.21,39.39,81.21Z"/><path class="cls-3" d="M107.79,87.42c-2.44,3.42-9.65,10.07-28.09,8C55.17,92.69,39.39,81.21,39.39,81.21S26.22,72.73,16,62C6.13,51.61,4.15,37.42,4.05,36.72A57.82,57.82,0,0,0,0,58c0,1.08,0,2.14.09,3.2C7.1,76.31,13.84,82.88,24.65,91a116.74,116.74,0,0,0,26.22,14.19A75.06,75.06,0,0,0,73,109.25c9.24.13,13.52-1.08,14.06-1.24A58.23,58.23,0,0,0,107.79,87.42Z"/><circle class="cls-5" cx="57.91" cy="57.99" r="57.91"/><text class="cls-6" transform="translate(152.01 94.13)">Kula Quest</text></g></g></g></svg>