<svg xmlns="http://www.w3.org/2000/svg" xmlns:xlink="http://www.w3.org/1999/xlink" viewBox="0 0 710.06 115.83"><defs><style>.cls-1{isolation:isolate;}.cls-2{fill:#0768fb;}.cls-3{fill:#ffce07;}.cls-4{fill:#fff;}.cls-5{mix-blend-mode:darken;fill:url(#radial-gradient);}</style><radialGradient id="radial-gradient" cx="57.91" cy="57.91" fx="92.42476740944036" fy="1.2424146826652347" r="66.35" gradientUnits="userSpaceOnUse"><stop offset="0.61" stop-color="#231f20" stop-opacity="0"/><stop offset="0.86" stop-color="#080707" stop-opacity="0.77"/><stop offset="0.89"/></radialGradient></defs><title>Logo_Dark</title><g class="cls-1"><g id="Layer_2" data-name="Layer 2"><g id="Layer_1-2" data-name="Layer 1"><circle class="cls-2" cx="57.91" cy="57.91" r="57.91"/><path class="cls-3" d="M60,.05c.73.29,4.5,1.84,5.67,3,0,0-18.26,1-24.58,2.54,0,0,13,2.28,18.65,4.17,0,0-13.63,9.59-17.67,13.31L67.3,20.61,63.44,42.26,81.59,29.4l9.88,22.45,4.16-21.28,14.42,15.31L101.15,24l6,3.45A57.87,57.87,0,0,0,60,.05Z"/><path class="cls-4" d="M39.39,81.13S55.17,92.61,79.7,95.35c18.44,2.06,25.65-4.59,28.09-8a57.61,57.61,0,0,0,7.67-23c-3.4,7.13-9.22,8.61-9.22,8.61S95.09,77.09,76.7,73s-35.81-17.41-38-19.37S31.7,48.52,23.09,36c-8.44-12.27-2-22.6-1.71-23A58,58,0,0,0,4.05,36.64c.1.7,2.08,14.89,12,25.32C26.22,72.65,39.39,81.13,39.39,81.13Z"/><path class="cls-3" d="M107.79,87.34c-2.44,3.42-9.65,10.07-28.09,8C55.17,92.61,39.39,81.13,39.39,81.13S26.22,72.65,16,62C6.13,51.53,4.15,37.34,4.05,36.64A57.82,57.82,0,0,0,0,57.91C0,59,0,60.05.09,61.1c7,15.12,13.75,21.7,24.56,29.78a116.74,116.74,0,0,0,26.22,14.19A75.06,75.06,0,0,0,73,109.17c9.24.13,13.52-1.08,14.06-1.24A58.23,58.23,0,0,0,107.79,87.34Z"/><circle class="cls-5" cx="57.91" cy="57.91" r="57.91"/><path d="M223.63,94.05H204L179.6,63c-.33-.4-1.51-2.06-3.53-5,.22,2.24.33,4.47.33,6.67V94.05H161.17V18.68H176.4V45.44a53.54,53.54,0,0,1-.33,6c2.16-2.94,3.49-4.67,4-5.19l23.5-27.58H222L191.13,53.49Z"/><path d="M282.28,38.1V72.25q.11,2.37.25,7.34t.25,8q.11,3,.33,6.51H269.42L269,85.44a19.94,19.94,0,0,1-4.66,5.13,20.75,20.75,0,0,1-6.15,3.23,21.8,21.8,0,0,1-6.85,1.13q-7.77,0-12.13-3.2a16.1,16.1,0,0,1-6-8.77,47.65,47.65,0,0,1-1.63-13.3V38.1H246V65a63.1,63.1,0,0,0,.52,8.86,12.24,12.24,0,0,0,2.79,6.29c1.51,1.78,3.79,2.68,6.84,2.68q6.57,0,9.1-5.55a30.85,30.85,0,0,0,2.54-13V38.1Z"/><path d="M312,94.05H297.56V12.66H312Z"/><path d="M373.37,94.05H360.46l-.22-8.39A17.47,17.47,0,0,1,353,92.53a21.83,21.83,0,0,1-10.13,2.4,24.48,24.48,0,0,1-10-1.93A15.46,15.46,0,0,1,326,87.12a17.33,17.33,0,0,1-2.54-9.57q0-10.48,8.22-14.35t20-3.86c1.14,0,1.88,0,2.21,0l2.2.11c1.14.05,2.3.12,3.48.19q0-6.22-3-9.27t-9.38-3a27.19,27.19,0,0,0-17.33,6.12l-.44-12.58a49.4,49.4,0,0,1,19.48-3.8,39.25,39.25,0,0,1,7.78.77,25.1,25.1,0,0,1,7.14,2.56,16.43,16.43,0,0,1,5.46,4.78A16.09,16.09,0,0,1,372.13,52a52.34,52.34,0,0,1,.69,9.13q0,5.46,0,11c0,3.68,0,7,.11,10.07S373.15,89.19,373.37,94.05ZM359.8,68.61a10,10,0,0,0-1.71-.11h-1.77a68,68,0,0,0-8.69.52,15,15,0,0,0-6.89,2.65,7.17,7.17,0,0,0-2.95,6.21,6.24,6.24,0,0,0,2.62,5.27,9.86,9.86,0,0,0,6.09,2q6.57,0,9.93-4.86A19.87,19.87,0,0,0,359.8,68.61Z"/><path d="M489.08,108.61H470.43l-13-13.07c-1.62.14-2.85.22-3.7.22A40.1,40.1,0,0,1,438,92.83a31,31,0,0,1-11.53-8.22,36.23,36.23,0,0,1-7-12.69A50.75,50.75,0,0,1,417,56a45.26,45.26,0,0,1,4.39-20.42A31.7,31.7,0,0,1,434.09,21.9q8.37-4.81,20.06-4.82a38.69,38.69,0,0,1,15.12,2.84,32.79,32.79,0,0,1,11.53,7.94A35.48,35.48,0,0,1,488.11,40a44.43,44.43,0,0,1,2.57,15.28q0,26.76-19.59,36.81ZM474.51,56A37.93,37.93,0,0,0,472.22,43a23.67,23.67,0,0,0-7-10.35,17.24,17.24,0,0,0-11.5-4,16.68,16.68,0,0,0-11.5,4.14,24.46,24.46,0,0,0-6.87,10.45,39,39,0,0,0-2.21,13,41,41,0,0,0,1.19,9.76,30.79,30.79,0,0,0,3.8,9.11,19.81,19.81,0,0,0,6.54,6.56,17.56,17.56,0,0,0,9.27,2.38,16.84,16.84,0,0,0,11.75-4.2,24,24,0,0,0,6.74-10.62A42.9,42.9,0,0,0,474.51,56Z"/><path d="M553.8,38.1V72.25q.11,2.37.25,7.34t.24,8q.12,3,.34,6.51H540.94l-.44-8.61a19.94,19.94,0,0,1-4.66,5.13,20.75,20.75,0,0,1-6.15,3.23,21.79,21.79,0,0,1-6.84,1.13q-7.79,0-12.14-3.2a16.1,16.1,0,0,1-6-8.77,47.65,47.65,0,0,1-1.63-13.3V38.1h14.46V65a63.1,63.1,0,0,0,.52,8.86,12.24,12.24,0,0,0,2.79,6.29c1.51,1.78,3.79,2.68,6.84,2.68q6.57,0,9.1-5.55a30.85,30.85,0,0,0,2.54-13V38.1Z"/><path d="M614.16,79.15l.22,12.52a47.53,47.53,0,0,1-19.2,3.87,35.91,35.91,0,0,1-12.28-2,24.68,24.68,0,0,1-9.18-5.8,25.22,25.22,0,0,1-5.8-9.27,36,36,0,0,1-2-12.38,35.8,35.8,0,0,1,1.85-11.78A27.29,27.29,0,0,1,573.11,45a23.92,23.92,0,0,1,8.58-6.15,28.89,28.89,0,0,1,11.56-2.21,25.72,25.72,0,0,1,11.09,2.27,20.67,20.67,0,0,1,7.81,6.23,27.64,27.64,0,0,1,4.49,9.19,41.27,41.27,0,0,1,1.49,11.45c0,.73,0,1.28,0,1.65s-.07.83-.11,1.38-.09,1.2-.17,1.93H580.17a14.08,14.08,0,0,0,5.16,10.32,17.74,17.74,0,0,0,11.45,3.7Q604.5,84.78,614.16,79.15Zm-9.82-18.43a20.17,20.17,0,0,0-1.35-6.9,11.54,11.54,0,0,0-3.81-5.07,10.27,10.27,0,0,0-6.37-1.93,11.56,11.56,0,0,0-6.7,1.9,12.62,12.62,0,0,0-4.31,5.05A19.82,19.82,0,0,0,580,60.72Z"/><path d="M627.18,92.54l.67-12.23q7.71,4,14.23,4a15.45,15.45,0,0,0,6.79-1.54,5.06,5.06,0,0,0,3.2-4.8q0-2.81-4.58-4.79t-9.19-3.91a23.71,23.71,0,0,1-8-5.41Q627,60.37,627,54.13a13.83,13.83,0,0,1,3.51-9.75,20.28,20.28,0,0,1,8.91-5.54,36.32,36.32,0,0,1,11.2-1.73,51.42,51.42,0,0,1,13.79,2.16l-1,10.86A39.42,39.42,0,0,0,651.46,48a18.79,18.79,0,0,0-7,1.26,4.48,4.48,0,0,0-3.2,4.41q0,2.7,4.38,4.49t9.22,3.59a22,22,0,0,1,8.28,5.34q3.43,3.56,3.44,10.17a15.21,15.21,0,0,1-3.33,10,19.41,19.41,0,0,1-8.64,5.9A33.54,33.54,0,0,1,643.46,95,65.88,65.88,0,0,1,627.18,92.54Z"/><path d="M709.56,82.07l.5,11.31a50.28,50.28,0,0,1-9.77,1.11q-7.11,0-11.26-2.62a13.92,13.92,0,0,1-5.79-7.45,36.94,36.94,0,0,1-1.65-11.84V49.19H671.05V38.43h10.76V27.06l14.45-4.74V38.43H709V49.19H696.26V69.55q0,6.51,1.41,9.9c.94,2.26,3.25,3.4,6.92,3.4A19.87,19.87,0,0,0,709.56,82.07Z"/></g></g></g></svg>